<?xml version="1.0" standalone="no"?>
<!DOCTYPE svg PUBLIC "-//W3C//DTD SVG 20010904//EN"
 "http://www.w3.org/TR/2001/REC-SVG-20010904/DTD/svg10.dtd">
<svg version="1.0" xmlns="http://www.w3.org/2000/svg"
 width="1140.000000pt" height="1140.000000pt" viewBox="0 0 1140.000000 1140.000000"
 preserveAspectRatio="xMidYMid meet">
<metadata>
Created by potrace 1.14, written by Peter Selinger 2001-2017
</metadata>
<g transform="translate(0.000000,1140.000000) scale(0.100000,-0.100000)"
fill="#000000" stroke="none">
<path d="M5330 11394 c-19 -2 -91 -9 -160 -14 -782 -66 -1598 -323 -2301 -725
-171 -98 -502 -319 -644 -430 -414 -323 -789 -703 -1095 -1110 -567 -755 -941
-1655 -1074 -2587 -46 -317 -51 -404 -51 -828 0 -424 5 -511 51 -828 133 -933
505 -1828 1074 -2587 234 -312 547 -648 835 -897 831 -718 1837 -1179 2907
-1332 317 -46 404 -51 828 -51 424 0 511 5 828 51 924 132 1799 492 2567 1058
415 305 886 776 1191 1191 566 768 926 1643 1058 2567 46 317 51 404 51 828 0
424 -5 511 -51 828 -211 1482 -1015 2831 -2229 3742 -745 559 -1631 931 -2545
1069 -302 45 -414 53 -815 56 -214 2 -406 1 -425 -1z m-490 -4491 l5 -1402
400 507 c220 279 707 899 1084 1377 376 479 687 872 691 875 4 3 12 15 19 28
l12 22 465 0 c298 0 464 -4 462 -10 -1 -5 -385 -474 -853 -1041 -467 -568
-854 -1040 -859 -1050 -6 -13 46 -109 226 -411 838 -1405 1697 -2846 1707
-2866 l12 -22 -464 0 -464 0 -650 1093 c-358 600 -711 1192 -783 1315 -110
185 -135 221 -146 210 -7 -7 -205 -245 -438 -528 l-425 -515 -1 -787 0 -788
-380 0 -380 0 0 2700 0 2700 378 -2 377 -3 5 -1402z"/>
</g>
</svg>
